HIERARCHY
ROOT Hips
{
	OFFSET 0.000000 0.000000 0.000000
	CHANNELS 6 Xposition Yposition Zposition Xrotation Yrotation Zrotation
	JOINT LeftUpLeg_virtual
	{
		OFFSET 0.000000 0.000000 0.000000
		CHANNELS 3 Xrotation Yrotation Zrotation
		JOINT LeftUpLeg
		{
			OFFSET 13.026900 -6.336304 -1.092800
			CHANNELS 3 Xrotation Yrotation Zrotation
			JOINT LeftLeg
			{
				OFFSET 0.524474 -46.096886 9.782700
				CHANNELS 3 Xrotation Yrotation Zrotation
				JOINT LeftFoot
				{
					OFFSET -0.524474 -53.427422 -12.948200
					CHANNELS 3 Xrotation Yrotation Zrotation
					JOINT LeftToeBase
					{
						OFFSET 0.192200 -14.009700 16.364100
						CHANNELS 3 Xrotation Yrotation Zrotation
						JOINT LeftToe_End
						{
							OFFSET -1.784700 -0.561700 9.474800
							CHANNELS 3 Xrotation Yrotation Zrotation
							End Site
							{
								OFFSET 0 0 0
							}
						}
					}
				}
			}
		}
	}
	JOINT RightUpLeg_virtual
	{
		OFFSET 0.000000 0.000000 0.000000
		CHANNELS 3 Xrotation Yrotation Zrotation
		JOINT RightUpLeg
		{
			OFFSET -12.883000 -6.336304 -1.092800
			CHANNELS 3 Xrotation Yrotation Zrotation
			JOINT RightLeg
			{
				OFFSET -0.524587 -46.096825 9.782800
				CHANNELS 3 Xrotation Yrotation Zrotation
				JOINT RightFoot
				{
					OFFSET 0.524587 -53.427383 -12.948300
					CHANNELS 3 Xrotation Yrotation Zrotation
					JOINT RightToeBase
					{
						OFFSET -0.192200 -14.009700 16.364100
						CHANNELS 3 Xrotation Yrotation Zrotation
						JOINT RightToe_End
						{
							OFFSET 1.784700 -0.561700 9.474800
							CHANNELS 3 Xrotation Yrotation Zrotation
							End Site
							{
								OFFSET 0 0 0
							}
						}
					}
				}
			}
		}
	}
	JOINT Spine_virtual
	{
		OFFSET 0.000000 0.000000 0.000000
		CHANNELS 3 Xrotation Yrotation Zrotation
		JOINT Spine
		{
			OFFSET 0.072000 7.257294 -0.789700
			CHANNELS 3 Xrotation Yrotation Zrotation
			JOINT Spine1
			{
				OFFSET 0.000000 12.508769 -0.658067
				CHANNELS 3 Xrotation Yrotation Zrotation
				JOINT Spine1_split
				{
					OFFSET 0.000000 12.508769 -0.658067
					CHANNELS 3 Xrotation Yrotation Zrotation
					JOINT Spine2
					{
						OFFSET 0.000000 12.508769 -0.658067
						CHANNELS 3 Xrotation Yrotation Zrotation
						JOINT Neck_virtual
						{
							OFFSET 0.000000 0.000000 0.000000
							CHANNELS 3 Xrotation Yrotation Zrotation
							JOINT Neck
							{
								OFFSET 0.000000 14.033295 7.520400
								CHANNELS 3 Xrotation Yrotation Zrotation
								JOINT Head
								{
									OFFSET 0.000000 8.198502 5.703100
									CHANNELS 3 Xrotation Yrotation Zrotation
									JOINT HeadTop_End
									{
										OFFSET 0.000000 17.760803 13.332701
										CHANNELS 3 Xrotation Yrotation Zrotation
										End Site
										{
											OFFSET 0 0 0
										}
									}
								}
							}
						}
						JOINT LeftShoulder_virtual
						{
							OFFSET 0.000000 0.000000 0.000000
							CHANNELS 3 Xrotation Yrotation Zrotation
							JOINT LeftShoulder
							{
								OFFSET 6.292450 5.785301 -0.669000
								CHANNELS 3 Xrotation Yrotation Zrotation
								JOINT LeftShoulder_split
								{
									OFFSET 6.292450 5.785301 -0.669000
									CHANNELS 3 Xrotation Yrotation Zrotation
									JOINT LeftArm
									{
										OFFSET 13.907140 -6.093903 1.965100
										CHANNELS 3 Xrotation Yrotation Zrotation
										JOINT LeftForeArm
										{
											OFFSET 34.140198 0.000000 0.000000
											CHANNELS 3 Xrotation Yrotation Zrotation
											JOINT LeftHand
											{
												OFFSET 40.960209 0.000000 0.000000
												CHANNELS 3 Xrotation Yrotation Zrotation
												End Site
												{
													OFFSET 0 0 0
												}
											}
										}
									}
								}
							}
						}
						JOINT RightShoulder_virtual
						{
							OFFSET 0.000000 0.000000 0.000000
							CHANNELS 3 Xrotation Yrotation Zrotation
							JOINT RightShoulder
							{
								OFFSET -6.292450 5.785301 -0.669000
								CHANNELS 3 Xrotation Yrotation Zrotation
								JOINT RightShoulder_split
								{
									OFFSET -6.292450 5.785301 -0.669000
									CHANNELS 3 Xrotation Yrotation Zrotation
									JOINT RightArm
									{
										OFFSET -13.907140 -6.093903 1.965100
										CHANNELS 3 Xrotation Yrotation Zrotation
										JOINT RightForeArm
										{
											OFFSET -34.140198 0.000000 0.000000
											CHANNELS 3 Xrotation Yrotation Zrotation
											JOINT RightHand
											{
												OFFSET -40.960209 0.000000 0.000000
												CHANNELS 3 Xrotation Yrotation Zrotation
												End Site
												{
													OFFSET 0 0 0
												}
											}
										}
									}
								}
							}
						}
					}
				}
			}
		}
	}
}
MOTION
Frames: 4
Frame Time: 0.03333333
-1.059123 104.475334 53.559254 0.000000 0.000000 0.000000 9.616743 -5.112595 0.264063 -33.360119 6.200676 17.538469 38.528049 7.927656 0.397795 -11.378631 -3.388821 -13.601221 0.449829 -0.427371 0.584249 0.000000 0.000000 0.000000 9.817473 -4.759573 0.531158 -37.341939 -2.331594 -5.887808 39.402552 1.602757 -4.528834 -10.776474 -9.798606 8.573860 1.288254 0.152170 -0.143197 0.000000 0.000000 0.000000 9.749848 -4.849807 0.093213 6.448975 -0.065543 -0.605916 1.820865 -0.346426 0.411887 1.070183 1.531407 -0.053498 0.000000 0.000000 0.000000 1.666206 -0.809918 0.357101 12.543408 -0.410481 0.691238 -30.045056 0.811015 -4.967966 0.000000 0.000000 0.000000 1.600336 -0.705164 0.668715 5.920081 -9.325663 19.320059 -1.305169 -4.242593 -0.067589 -33.176418 -15.155865 -13.805853 178.399050 -58.107684 179.818745 0.000000 0.000000 0.000000 0.881379 -0.750435 0.569344 -0.843168 -8.235768 -16.466343 0.509695 -0.392573 1.986082 -38.521372 35.541364 31.304116 179.116520 52.041718 -179.666364 0.000000 0.000000 0.000000 
-1.189825 107.180824 54.716164 0.000000 0.000000 0.000000 9.831912 -4.937685 0.493343 -30.191741 7.311374 16.823606 32.990609 8.223158 0.518402 -10.271960 -3.381602 -13.127840 0.812391 -0.321081 0.324355 0.000000 0.000000 0.000000 10.144456 -4.367002 0.642286 -33.902388 -2.695448 -5.806566 33.827465 1.409614 -4.447264 -8.726990 -9.787181 8.646323 0.684186 0.096851 -0.079479 0.000000 0.000000 0.000000 10.088147 -4.608505 0.267908 6.195921 -0.185009 -0.580723 0.963695 -0.372195 0.269761 1.174452 1.466854 0.064919 0.000000 0.000000 0.000000 0.665284 -0.832688 0.230897 12.299628 -0.374188 0.884521 -29.033918 0.724309 -4.746678 0.000000 0.000000 0.000000 0.550614 -0.752875 0.488782 5.938891 -9.367020 19.110471 -1.535348 -3.998691 -0.077846 -32.606411 -15.626737 -14.144941 178.643775 -58.297461 -179.981878 0.000000 0.000000 0.000000 -0.177283 -0.755748 0.469695 -0.950540 -8.175486 -16.494422 0.717614 -0.758292 2.075812 -37.021196 36.330726 30.603301 179.023807 52.217910 -179.332135 0.000000 0.000000 0.000000 
-1.297608 109.592285 55.703468 0.000000 0.000000 0.000000 10.040776 -4.736686 0.699091 -27.242066 8.304643 16.078545 27.756994 8.422221 0.676171 -9.088476 -3.549619 -12.820107 1.088062 -0.197778 0.132759 0.000000 0.000000 0.000000 10.429898 -3.967680 0.737291 -30.763230 -2.895770 -5.769462 28.827312 1.153337 -4.338817 -6.785978 -9.765161 8.687566 0.288174 0.042555 -0.025126 0.000000 0.000000 0.000000 10.379555 -4.257488 0.432137 6.003245 -0.295178 -0.587276 0.195285 -0.427171 0.183678 1.217953 1.382219 0.163793 0.000000 0.000000 0.000000 -0.178907 -0.879255 0.170591 11.867970 -0.338189 0.966047 -28.050634 0.695233 -4.562420 0.000000 0.000000 0.000000 -0.371495 -0.801978 0.361994 5.850107 -9.058768 18.901258 -1.659144 -3.909970 -0.049378 -31.703757 -16.903294 -14.398124 178.885018 -58.700408 -179.800700 0.000000 0.000000 0.000000 -1.092855 -0.785099 0.402252 -1.097254 -8.200250 -16.400980 0.781851 -1.177444 2.106890 -35.472393 37.195947 30.113338 178.920220 52.474967 -178.957513 0.000000 0.000000 0.000000 
-1.357450 111.456490 56.403538 0.000000 0.000000 0.000000 10.168681 -4.547188 0.844802 -24.834708 9.097986 15.430791 23.352825 8.516522 0.816678 -7.840622 -3.879568 -12.726430 1.244171 -0.069684 0.022213 0.000000 0.000000 0.000000 10.650382 -3.626946 0.803983 -28.216065 -2.961814 -5.788644 24.707113 0.877762 -4.229809 -5.204792 -9.695892 8.657928 0.299319 -0.003520 0.004438 0.000000 0.000000 0.000000 10.595509 -3.910567 0.555592 5.883239 -0.371791 -0.601599 -0.414646 -0.495387 0.156398 1.220335 1.332819 0.169337 0.000000 0.000000 0.000000 -0.802699 -0.945715 0.180637 11.380640 -0.309609 0.973812 -27.083462 0.743423 -4.450900 0.000000 0.000000 0.000000 -1.111280 -0.849526 0.307905 5.677792 -8.388328 18.719008 -1.742607 -3.861491 0.011858 -30.688173 -18.785664 -14.599758 179.144223 -58.848241 -179.570413 0.000000 0.000000 0.000000 -1.777636 -0.826527 0.373992 -1.268483 -8.316653 -16.204245 0.658758 -1.374479 2.114449 -34.128188 37.856863 29.923288 178.841933 52.678841 -178.646070 0.000000 0.000000 0.000000 
